<?xml version="1.0" encoding="utf-8"?>
<svg xmlns="http://www.w3.org/2000/svg" viewBox="0 0 80 80" width="24" height="24">
  <path d="M15 10C12.242188 10 10 12.242188 10 15L10 64L40.515625 64L39.515625 62L12 62L12 20C12.550781 20 13 19.550781 13 19C13 18.449219 12.550781 18 12 18L12 15C12 13.347656 13.347656 12 15 12L65 12C66.652344 12 68 13.347656 68 15L68 18C67.449219 18 67 18.449219 67 19C67 19.550781 67.449219 20 68 20L68 44.515625L70 46.515625L70 15C70 12.242188 67.757813 10 65 10 Z M 16 18C15.449219 18 15 18.449219 15 19C15 19.550781 15.449219 20 16 20C16.550781 20 17 19.550781 17 19C17 18.449219 16.550781 18 16 18 Z M 20 18C19.449219 18 19 18.449219 19 19C19 19.550781 19.449219 20 20 20C20.550781 20 21 19.550781 21 19C21 18.449219 20.550781 18 20 18 Z M 24 18C23.449219 18 23 18.449219 23 19C23 19.550781 23.449219 20 24 20C24.550781 20 25 19.550781 25 19C25 18.449219 24.550781 18 24 18 Z M 28 18C27.449219 18 27 18.449219 27 19C27 19.550781 27.449219 20 28 20C28.550781 20 29 19.550781 29 19C29 18.449219 28.550781 18 28 18 Z M 32 18C31.449219 18 31 18.449219 31 19C31 19.550781 31.449219 20 32 20C32.550781 20 33 19.550781 33 19C33 18.449219 32.550781 18 32 18 Z M 36 18C35.449219 18 35 18.449219 35 19C35 19.550781 35.449219 20 36 20C36.550781 20 37 19.550781 37 19C37 18.449219 36.550781 18 36 18 Z M 40 18C39.449219 18 39 18.449219 39 19C39 19.550781 39.449219 20 40 20C40.550781 20 41 19.550781 41 19C41 18.449219 40.550781 18 40 18 Z M 44 18C43.449219 18 43 18.449219 43 19C43 19.550781 43.449219 20 44 20C44.550781 20 45 19.550781 45 19C45 18.449219 44.550781 18 44 18 Z M 48 18C47.449219 18 47 18.449219 47 19C47 19.550781 47.449219 20 48 20C48.550781 20 49 19.550781 49 19C49 18.449219 48.550781 18 48 18 Z M 52 18C51.449219 18 51 18.449219 51 19C51 19.550781 51.449219 20 52 20C52.550781 20 53 19.550781 53 19C53 18.449219 52.550781 18 52 18 Z M 56 18C55.449219 18 55 18.449219 55 19C55 19.550781 55.449219 20 56 20C56.550781 20 57 19.550781 57 19C57 18.449219 56.550781 18 56 18 Z M 60 18C59.449219 18 59 18.449219 59 19C59 19.550781 59.449219 20 60 20C60.550781 20 61 19.550781 61 19C61 18.449219 60.550781 18 60 18 Z M 64 18C63.449219 18 63 18.449219 63 19C63 19.550781 63.449219 20 64 20C64.550781 20 65 19.550781 65 19C65 18.449219 64.550781 18 64 18 Z M 23 29C21.894531 29 21 29.894531 21 31C21 32.105469 21.894531 33 23 33C24.105469 33 25 32.105469 25 31C25 29.894531 24.105469 29 23 29 Z M 28 30L28 32L57 32L57 30 Z M 23 37C21.894531 37 21 37.894531 21 39C21 40.105469 21.894531 41 23 41C24.105469 41 25 40.105469 25 39C25 37.894531 24.105469 37 23 37 Z M 28 38L28 40L57 40L57 38 Z M 56 42C48.28125 42 42 48.28125 42 56C42 63.71875 48.28125 70 56 70C59.5 70 62.695313 68.699219 65.15625 66.566406L67.015625 68.429688L66.78125 68.664063C65.933594 69.511719 65.933594 70.914063 66.78125 71.757813L74.382813 79.359375C75.226563 80.203125 76.628906 80.207031 77.476563 79.359375L79.359375 77.476563C80.203125 76.632813 80.207031 75.230469 79.359375 74.382813L71.757813 66.78125C71.335938 66.359375 70.773438 66.148438 70.210938 66.144531C69.648438 66.144531 69.085938 66.359375 68.664063 66.78125L68.429688 67.015625L66.566406 65.15625C68.699219 62.695313 70 59.5 70 56C70 48.28125 63.71875 42 56 42 Z M 56 44C62.640625 44 68 49.359375 68 56C68 62.640625 62.640625 68 56 68C49.359375 68 44 62.640625 44 56C44 49.359375 49.359375 44 56 44 Z M 23 45C21.894531 45 21 45.894531 21 47C21 48.105469 21.894531 49 23 49C24.105469 49 25 48.105469 25 47C25 45.894531 24.105469 45 23 45 Z M 28 46L28 48L41 48L42 46 Z M 56 46C55.449219 46 55 46.449219 55 47C55 47.550781 55.449219 48 56 48C56.550781 48 57 47.550781 57 47C57 46.449219 56.550781 46 56 46 Z M 51.472656 47.203125C51.308594 47.207031 51.144531 47.253906 51 47.339844C50.769531 47.46875 50.601563 47.6875 50.53125 47.945313C50.464844 48.203125 50.5 48.476563 50.632813 48.703125C50.910156 49.183594 51.519531 49.347656 52 49.070313C52.476563 48.792969 52.640625 48.183594 52.363281 47.703125C52.183594 47.386719 51.839844 47.195313 51.472656 47.203125 Z M 60.453125 47.207031C60.113281 47.226563 59.804688 47.414063 59.632813 47.707031C59.355469 48.183594 59.519531 48.796875 60 49.074219C60.226563 49.207031 60.5 49.242188 60.757813 49.171875C61.015625 49.105469 61.234375 48.9375 61.363281 48.707031C61.640625 48.230469 61.476563 47.617188 61 47.34375C60.832031 47.246094 60.640625 47.199219 60.453125 47.207031 Z M 63.769531 50.5C63.601563 50.503906 63.4375 50.550781 63.292969 50.632813C62.816406 50.910156 62.648438 51.519531 62.925781 52C63.058594 52.226563 63.277344 52.394531 63.535156 52.464844C63.789063 52.535156 64.0625 52.5 64.292969 52.363281C64.523438 52.234375 64.691406 52.015625 64.757813 51.757813C64.828125 51.5 64.792969 51.226563 64.65625 51C64.476563 50.683594 64.132813 50.492188 63.769531 50.5 Z M 48.15625 50.5C47.816406 50.519531 47.507813 50.707031 47.339844 51C47.0625 51.480469 47.226563 52.089844 47.703125 52.367188C48.183594 52.644531 48.792969 52.480469 49.070313 52C49.203125 51.773438 49.238281 51.5 49.171875 51.242188C49.101563 50.984375 48.933594 50.765625 48.703125 50.636719C48.539063 50.539063 48.347656 50.492188 48.15625 50.5 Z M 47 55C46.449219 55 46 55.449219 46 56C46 56.550781 46.449219 57 47 57C47.550781 57 48 56.550781 48 56C48 55.449219 47.550781 55 47 55 Z M 65 55C64.449219 55 64 55.449219 64 56C64 56.550781 64.449219 57 65 57C65.550781 57 66 56.550781 66 56C66 55.449219 65.550781 55 65 55 Z M 48.183594 59.5C48.015625 59.503906 47.851563 59.546875 47.703125 59.632813C47.226563 59.910156 47.0625 60.519531 47.339844 61C47.46875 61.226563 47.6875 61.394531 47.945313 61.464844C48.203125 61.535156 48.476563 61.5 48.703125 61.363281C48.933594 61.234375 49.101563 61.015625 49.171875 60.757813C49.238281 60.5 49.203125 60.226563 49.070313 60C48.886719 59.679688 48.546875 59.488281 48.183594 59.5 Z M 63.746094 59.503906C63.40625 59.519531 63.097656 59.707031 62.925781 60C62.648438 60.480469 62.816406 61.089844 63.292969 61.367188C63.769531 61.644531 64.382813 61.480469 64.65625 61C64.933594 60.523438 64.769531 59.914063 64.292969 59.636719C64.128906 59.539063 63.9375 59.496094 63.746094 59.503906 Z M 60.472656 62.792969C60.308594 62.796875 60.144531 62.84375 60 62.925781C59.769531 63.058594 59.601563 63.277344 59.53125 63.535156C59.464844 63.789063 59.5 64.0625 59.632813 64.292969C59.910156 64.769531 60.519531 64.933594 61 64.65625C61.476563 64.382813 61.640625 63.769531 61.363281 63.292969C61.183594 62.976563 60.839844 62.785156 60.472656 62.792969 Z M 51.453125 62.796875C51.113281 62.8125 50.804688 63 50.632813 63.296875C50.355469 63.773438 50.519531 64.382813 51 64.660156C51.226563 64.792969 51.5 64.828125 51.757813 64.761719C52.015625 64.691406 52.234375 64.523438 52.363281 64.296875C52.640625 63.816406 52.476563 63.207031 52 62.929688C51.832031 62.832031 51.640625 62.789063 51.453125 62.796875 Z M 56 64C55.449219 64 55 64.449219 55 65C55 65.550781 55.449219 66 56 66C56.550781 66 57 65.550781 57 65C57 64.449219 56.550781 64 56 64 Z M 70.210938 68.136719C70.257813 68.136719 70.300781 68.15625 70.34375 68.195313L77.945313 75.796875C78.027344 75.878906 78.027344 75.980469 77.945313 76.0625L76.0625 77.945313C75.980469 78.027344 75.878906 78.027344 75.796875 77.945313L68.195313 70.34375C68.113281 70.261719 68.113281 70.160156 68.195313 70.078125L70.078125 68.195313C70.117188 68.15625 70.164063 68.132813 70.210938 68.136719Z" fill="#5B5B5B" />
</svg>